<svg width="32" height="32" viewBox="0 0 32 32" fill="none" xmlns="http://www.w3.org/2000/svg">
<path d="M7.77069 9.33333L11.152 12.7147L9.26669 14.6L2.66669 7.99999L9.26669 1.39999L11.152 3.28533L7.77069 6.66666H17.3334C20.1623 6.66666 22.8754 7.79047 24.8758 9.79085C26.8762 11.7912 28 14.5044 28 17.3333C28 20.1623 26.8762 22.8754 24.8758 24.8758C22.8754 26.8762 20.1623 28 17.3334 28H5.33335V25.3333H17.3334C19.4551 25.3333 21.4899 24.4905 22.9902 22.9902C24.4905 21.4899 25.3334 19.4551 25.3334 17.3333C25.3334 15.2116 24.4905 13.1768 22.9902 11.6765C21.4899 10.1762 19.4551 9.33333 17.3334 9.33333H7.77069Z" fill="#BED33F"/>
</svg>
