<svg width="24" height="24" viewBox="0 0 24 24" fill="none" xmlns="http://www.w3.org/2000/svg">
<path d="M20.0391 14.0391C19.1484 14.9453 18.1602 15.707 17.0742 16.3242C15.9883 16.9414 14.9297 17.3789 13.8984 17.6367C12.8672 17.8945 11.875 18.0078 10.9219 17.9766C9.96875 17.9453 9.13281 17.7578 8.41406 17.4141C7.80469 18.3828 7.5 19.0781 7.5 19.5C7.5 19.9844 7.52344 20.4063 7.57031 20.7656C7.61719 21.125 7.69922 21.4102 7.81641 21.6211C7.93359 21.832 8.04297 22 8.14453 22.125C8.24609 22.25 8.40625 22.3398 8.625 22.3945C8.84375 22.4492 9.01953 22.4805 9.15234 22.4883C9.28516 22.4961 9.48438 22.5 9.75 22.5C10.3125 22.5 11.0625 22 12 21C12 21.7344 11.5898 22.418 10.7695 23.0508C9.94922 23.6836 9.10938 24 8.25 24C7.21875 24 6.33594 23.6328 5.60156 22.8984C4.86719 22.1641 4.5 21.2812 4.5 20.25C4.5 19.9844 4.53906 19.6953 4.61719 19.3828C4.30469 19.4609 4.01562 19.5 3.75 19.5C2.71875 19.5 1.83594 19.1328 1.10156 18.3984C0.367187 17.6641 0 16.7812 0 15.75C0 14.8906 0.316406 14.0508 0.949219 13.2305C1.58203 12.4102 2.26562 12 3 12C2 12.9375 1.5 13.6875 1.5 14.25C1.5 14.5156 1.50391 14.7148 1.51172 14.8477C1.51953 14.9805 1.55078 15.1563 1.60547 15.375C1.66016 15.5937 1.75 15.7539 1.875 15.8555C2 15.957 2.16797 16.0664 2.37891 16.1836C2.58984 16.3008 2.875 16.3828 3.23438 16.4297C3.59375 16.4766 4.01563 16.5 4.5 16.5C4.92188 16.5 5.61719 16.1875 6.58594 15.5625C6.24219 14.8594 6.05469 14.0313 6.02344 13.0781C5.99219 12.125 6.10938 11.1328 6.375 10.1016C6.64062 9.07031 7.08203 8.01172 7.69922 6.92578C8.31641 5.83984 9.07031 4.85156 9.96094 3.96094C11.1328 2.78906 12.4297 1.86328 13.8516 1.18359C15.2734 0.503906 16.6563 0.109375 18 0V4.5C18 4.92188 18.1445 5.27734 18.4336 5.56641C18.7227 5.85547 19.0781 6 19.5 6H24C23.8906 7.34375 23.4961 8.72656 22.8164 10.1484C22.1367 11.5703 21.2109 12.8672 20.0391 14.0391ZM13.4883 6C13.0742 6 12.7227 6.14453 12.4336 6.43359C12.1445 6.72266 12 7.07812 12 7.5C12 7.92188 12.1445 8.27734 12.4336 8.56641C12.7227 8.85547 13.0742 9 13.4883 9C13.9023 9 14.2578 8.85547 14.5547 8.56641C14.8516 8.27734 15 7.92188 15 7.5C15 7.07812 14.8516 6.72266 14.5547 6.43359C14.2578 6.14453 13.9023 6 13.4883 6Z" fill="#BED33F"/>
</svg>
