<svg width="16" height="16" viewBox="0 0 16 16" fill="none" xmlns="http://www.w3.org/2000/svg">
<g clip-path="url(#clip0)">
<path d="M7.07693 -0.0190735C5.872 -0.0190735 4.904 0.982157 4.904 2.19262V2.46154H2.46154C2.12247 2.46154 1.84616 2.73785 1.84616 3.07693V3.69231H1.23077V4.92308H2.46154V14.1539C2.46154 15.1662 3.29539 16 4.3077 16H11.6923C12.7046 16 13.5385 15.1662 13.5385 14.1539V4.92308H14.7692V3.69231H14.1539V3.07693C14.1539 2.73785 13.8775 2.46154 13.5385 2.46154H11.096V2.192C11.096 0.982157 10.128 -0.0190735 8.92308 -0.0190735H7.07693V-0.0190735ZM7.07693 1.24985H8.92308C9.41785 1.24985 9.82708 1.65354 9.82708 2.192V2.46154H6.17231V2.192C6.17231 1.65354 6.58154 1.25047 7.07631 1.25047L7.07693 1.24985ZM3.69231 4.92308H6.84616C6.92247 4.93108 6.99816 4.94216 7.07693 4.94216H8.92308C9.00185 4.94216 9.07693 4.93108 9.15385 4.92308H12.3077V14.1539C12.3077 14.5003 12.0388 14.7692 11.6923 14.7692H4.3077C3.96124 14.7692 3.69231 14.5003 3.69231 14.1539V4.92308ZM4.92308 6.15385V13.5385H6.15385V6.15385H4.92308ZM7.38462 6.15385V13.5385H8.61539V6.15385H7.38462ZM9.84616 6.15385V13.5385H11.0769V6.15385H9.84616Z" fill="#F44336"/>
</g>
<defs>
<clipPath id="clip0">
<rect width="16" height="16" fill="white"/>
</clipPath>
</defs>
</svg>
