<svg width="64" height="64" viewBox="0 0 64 64" fill="none" xmlns="http://www.w3.org/2000/svg">
<path d="M32 5.33334C17.544 5.33334 5.33331 17.544 5.33331 32C5.33331 40.504 9.57865 48.208 16 53.1307V53.3333H16.272C20.72 56.6533 26.168 58.6667 32 58.6667C37.832 58.6667 43.28 56.6533 47.728 53.3333H48V53.1307C54.4213 48.208 58.6666 40.5067 58.6666 32C58.6666 17.544 46.456 5.33334 32 5.33334ZM21.5306 50.472C21.9236 48.6944 22.9108 47.1038 24.3292 45.9626C25.7477 44.8215 27.5128 44.1978 29.3333 44.1947H34.6666C36.4871 44.1983 38.2519 44.8221 39.6703 45.9632C41.0886 47.1043 42.0759 48.6946 42.4693 50.472C39.3546 52.2773 35.776 53.3333 32 53.3333C28.224 53.3333 24.6453 52.2773 21.5306 50.472ZM46.96 47.0427C45.9428 44.621 44.2339 42.5531 42.0473 41.0979C39.8606 39.6426 37.2933 38.8647 34.6666 38.8613H29.3333C26.7067 38.8647 24.1394 39.6426 21.9527 41.0979C19.766 42.5531 18.0572 44.621 17.04 47.0427C13.128 43.152 10.6666 37.8027 10.6666 32C10.6666 20.4347 20.4346 10.6667 32 10.6667C43.5653 10.6667 53.3333 20.4347 53.3333 32C53.3333 37.8027 50.872 43.152 46.96 47.0427Z" fill="#BED33F"/>
<path d="M32 16C25.92 16 21.3333 20.5867 21.3333 26.6667C21.3333 32.7467 25.92 37.3333 32 37.3333C38.08 37.3333 42.6666 32.7467 42.6666 26.6667C42.6666 20.5867 38.08 16 32 16ZM32 32C28.8586 32 26.6666 29.808 26.6666 26.6667C26.6666 23.5253 28.8586 21.3333 32 21.3333C35.1413 21.3333 37.3333 23.5253 37.3333 26.6667C37.3333 29.808 35.1413 32 32 32Z" fill="#BED33F"/>
</svg>
